<mxfile host="65bd71144e">
    <diagram id="g9RYm9AVmZrkEuwRoeDl" name="Page-1">
        <mxGraphModel dx="2024" dy="569" grid="1" gridSize="10" guides="1" tooltips="1" connect="1" arrows="1" fold="1" page="1" pageScale="1" pageWidth="850" pageHeight="1100" math="0" shadow="0">
            <root>
                <mxCell id="0"/>
                <mxCell id="1" parent="0"/>
                <mxCell id="2" value="" style="shape=image;verticalLabelPosition=bottom;labelBackgroundColor=#ffffff;verticalAlign=top;aspect=fixed;imageAspect=0;image=data:image/png,iVBORw0KGgoAAAANSUhEUgAAAPcAAAIICAYAAACy13i2AAAAAXNSR0IArs4c6QAAIABJREFUeF7sXQd4VEUXPUAghBIgoffei1QVBVSQIk06CNKrvWL97b136b2DBQFRAUEEKSIoIL1DaKF3COX/zt4dd7PZJLub3Wy79/v42Oy+N2/mzJy5Ze6byRAXF3cDKoqAIhByCGRQcodcn2qDFAELAkpuHQiKQIgioOQO0Y7VZikCSm4dA4pAiCKg5A7RjtVmKQJKbh0DikCIIuASuW/cuAH+y5Ahg+Wfq+Lpfa6Wr9cpAopA8gi4RO6TJ0+C/zJmzIicOXMiT548ls/2cvXqVcsEkDlzZsvX/Hzs2DGcPXsWmTJlstzDe92ZHLTjFAFFwHMEXCL39u3bERERgZiYGOzduxdFihRB7ty5ceHCBQvJo6KicPToUVy8eBHFihWzXHv9+nXwPhKavx88eBAlSpSwkP/y5cuW//k9JwXex3J4X5YsWSy/X7lyBVmzZrX8raIIKALuI+AyuXPkyIH8+fNj9+7dyJYtm4XYJCHJmTdvXpw5cwbnz59HhQoVLIQmuXfs2GG5h3/v3LkTuXLlsmhzam/eV65cORw4cMBSDoX3m++MBVC6dGlERka63zK9QxEIcwRcJjeJR1LTzC5Tpgy2bNmC4sWLIyEhAadPn0ahQoUsJC1atKgFUpJ769atuHbt2n8mPInPci5dumTR5AULFkR8fDyqVKli+W7Tpk0Wi4DE5//8rXDhwoiNjQ3zbtLmKwLuI+Ayuak9qaH5Pwm9fv16lC1b1vJEmtTGvKZZbshNs5wkjY6Ottx37tw5i+bnpEBy58uXD4cPH0bFihUt5OZkQCLTX+ez+Bzeq6a5+x2rdygCLpGbhKRZTjKaYBl9b2OWk5A0vXkdNTcJTYLyb97D3yg05bdt22axAEh0mty0BPiZpjpNe2p3Ep9BOJZRsmRJNct1nCoCHiDgErmTK5cmN0npGDlPqR401/mPwTOS99SpUxbycqKIi4uzmOhG87Ncja570Kt6iyIQCC+OcImNVgADaNTkjKCrKAKKQNoRcElzU8u6o53TXi0tQRFQBOwRYPyJlq474hK56VPrcpQ7sOq1ioB3EeDKEQnujii53UFLr1UE/ISAkttPwOtjFQFfI6Dk9jXCqZQfF3cQm7dsxo4dO5E3byxuq38bChUq6Oda6eNDAQElt596kUt702fMwLvvf2CpAZfvGPxguu03M6ZbEnJUFIG0IKDkTgt6Ht7LpbynnnkWa9eutST6DBo4ANWrVsPWbdvwwUcfoVDBgvj+2288LF1vUwQEASV3Oo8Eps4+9cwz2LjxX9xcrx6eHfo0SpUq9V8tJk6ajA8//hirV/yhKbTp3Deh9jgldzr2KHPp+/YfgA0bN6JmzZsw/Kuv/nuX3VRj+R9/4KFHHsW6NX+mY830UaGIgJI7HXv1kccex+/LlqFhwwZ4aMgDKFasqOX9c3tZtXo13n3vfXw7a2Y61kwfFYoIKLnTqVdJ2sEPPGgxwT/75GPLyzD87vDhIxaS9+rZE/ny5sWChQstL8u0bdMmnWqmjwlVBJTc6dCzfIutW48eOHAgDhPHj0O1qlX/eyp/mzZjBn6YMxfdu3WzpOx27NBeU3fToV9C/RFK7nTo4Q8/+hgTJ09G39698cjDDzl9ItMEGSk/dOgwBvbvj6pV5U03FUXAUwSU3J4i5+J9p0+fQet72yJHjpyY/e03SQJo9sXwddjhI0aicuVKiI8/hm3bt1u0eIXy5V18mnuXcbOLkaNHg4k0DwwZjOLWTTPcK0WvDlQElNw+7BkmpQx99jmLH/3gkCEY0L9fqk+7cPEiPv/iS4uGv3b1Kr4ePhwlipdA82ZNLTvMeEs2bd6M1atXo2bNmpbofWSWLOjUsaO3ig/bco6eBRKueb/5GTMABaIB/u+qKLldRcqD67i7a7uOnVC4UGHMnD7V5RJmzpqF9z74EK1btkT7Du0RlTUrXnzpJdxcty769u1r+dtsBulyodY96rhrLDPjuLVVvbp1LRlyR44cwbCvvvSoTHeeH+rX8uXKZduBUxe939LMmYC7KgBZIlwvW8ntOlZuXzll6jS8/+GHePKJx9Hjvvtcvp/m+cjRY9C2dStLsssvCxfg0qXLuKNRI0RH57Qsp504cRINGzRA7dq1UKZ06RTLZvR97o8/WnaTbd6sGYoULowvv/7aYvo/MHgwKlQor8R2uXeSv1DJ7QUQg6EI+rN3N2uOs+fOYd4Psy37trsjTz49FO++/ZZlaynKihUrsXTZMsvWUpUrVUTFChVw4uRJ7Nq9BydOHEdsTAwyZMhoyU/PlCkjsmaV/d0ZjedW0dWqVbV8njtvHnbu3IX7unVFk8aN3amSV649fAY4cT7logrnAnJnc+9xu44Bl6yvLlcuJPfGnwPiz8rnYnmAnIlTCtx7gAtXk9yr9wBnfaC5IzIB9csAWTK5UBHrJaq5XcfKrSv/WLECDzz0sMX0HTHs6/8OVXB1dxpq/Dsa3YG6dWonee7iJUtAq4DuV7169VC6VCmUKVsGkVkiEZUtCpkyZrQ8L4HkPnMG/6xfj3nz5yNjhox4cMhgi5/tr33mvloCfPd3ylA+2QRoblstdAn3IVOAHUfl0gWPyf+TVgHjV8jn19sAt6Rs4Lj0nGC6SMnto956+933LL7t+LFjUKN6dYtfe/jIEctnV4S7wE6dPgPPP/uM08upoek/0zKgRt6zZw+2bNlqSY65dv2aHNZQthzKlS9nyWHPnSuXZUdZVycXV+royTVKbk9Q8+weJbdnuKV61z2tWluIN+f77yzbNnPH1ldeex2ffPRhqveaC556eiiGDBmcqk/tcoEBcKE9uQc2AKoUTlopT8xy1dxJcVRy+2DAc2np/l69LevTkydOsPjNDJL1GzgQn3/yyX97sqf26LXr1uG119/Ap598jBLFiye6/MpVYH0cMHU1sP+kLJGUyw/cUw2oUwJgdJXy8782M7hPfYC+6ay/gLolgWebyzW74oFZa4E1+3gao/in7WoCN5eylZNaXV393Z7cb7SVZziTP3YCE1bKL21rAC3szPQvlwAb4uS3t+4FYrIDSm4lt6tjME3XcRlrytSp6NqlM54dOvS/svbvP2BZ8+7bp7fL5R8/cQIvvPg/y1KVvXywAPjlXwsXEwlPS761NPBKK24AAUz7Exi9XC6pVsRGCgZnXm0NLNsBvPkjcPV60iqVyQcM6+5yVV260FVy//Qv8OECKXLA7UDnOrbiX5gNrN4tf0/uC+SPDhxyc6I1gT2XAHHxokwZgRIxAP93VVRzu4qUi9dxh5V+AwZi3d9/Y9SI4ahTO3FAbOSo0cgZnRNdO3d2qUSW98lnn6FK5cpo1rSp5Z6Fm4F3f5bbG5UH2lQHrt0A3vsZOHYOiMoCTOwD5IpKTG5q86qFgYqFgPw5gVtLAX3GAxcTRPs9eIfcs2gLMH+jlP/IXUDrZMIEv+8ANhxI2ozaJZLXyPbkrlEUiM2e+P7skVKPBZuDj9y6FObSkA7eixilbt+ps2UXjGW/LXG64cLwkSMtkev7e3RP8sqns5aT4M+/+D+889ablp+5lHTIuqREgkRnFQ3++jzg9+1SwtT+QN4ciclNE5imsBF77fi/lkDDcvLLtetC+kOngapFgI87Oe+P4UvFnHeUTrUB+tPOJLWAGicZauOFW5Tc9vhpEksAzAmMUrdo1dpSk/u6drUcWli3bh3ExsSiWvVqyJghg2UZ6qthw7F06VJ8+vFHlrPSeM5ZSvLeBx9YXjwxe6vRjD51Qcxq+p+bDonWNuKM3E81BZpVtl3z5nxgyVb5mya7veyIBy5eAahJvx/ivGZjlgPf/5P0t/Y3Ab3rp05uZls5plPmyQaM6SXWSbCZ5ZxgGStgv3hbiFWjcpqh5m1c3Srv1KnTuLNJE9SoUR1jR42yLH8xUs7lqt2792D37l24+eZbUKJEcUuSybfffQ+ebFq+XDnUqVMbRYsUtbzfzYMP7eWXBQstZ5fzBY+9x4FX5gIHTtqu4Jp31sxiYlNcIfdTs4B/nJjV9s9NidxuAWO92F5z0+dn8M9eGCeglgpWn5t55dedxC88wSoxMEJsN1LLdQ+1NIPuUMDatevQd8AAtLznHrz5+mtJiv9hzhzL8cMksxGS/I233rK85x1/7BiOHo3HlStXLFq6ZYvmKFeunCVV9LEnnrC8D/7m/IxYajW/u9WVzKWieYBRy4B5G1wnN310+raU99oDBXIlRSOT9YUFb+HkakCNfv87P8lTe94C3H+LrQZPzLQFBgMtoOYtnLxRjgbUvIGiXRmLFv2KJ4cORft27fDSiy84LX3EyJEW07x3797IHBFhSUChr86jiO3l0KFD+N/LL6N169Zo06oVBg15AJ9/9ime+CYLth2RK+c8KBqbR0Jx0G886Dq5SaB3fxJ/3T4ifeUaMHGlWAFl8wHNvfhquavkXrELeOkHaQuX+N5pD0RlBvYcBx6YYkNJyZ38AFZye5nczEpjdlqXzp3x3DO2ZTD7xzC7bP2GDciRPTuKFy9u0fTDvvwSk6dMQcuWLS0vdhjh+viAQYPxwvPPYfr0GXj4oQfx7q85scq6FEStVixGfG/+YzCM4opZfu4y0HMscPaSmMLMya5YUEz1LYelnJbVgMe8mILuKrnPXwbu/dqGGoOGnMROXgByRMr/FCW3ktvLFE6+uGnTp+Od995Pkdy8mwkqeWNjceHCRUyaMtnyxteXXw/D9CmTk0TYv5/9A06eOolzZ8+h5/09sO1kLktk3PjXLI/kbFxRfFVXyc3raAG89wssfry90LerUQwY2hTIl9N78LlKbj7REjH/JfEafLMqEugzbkmgkXvfCeDyVe/hZUrSdW7vY+p2icuWL7dsTdyoYUNLJDw54SYO1Mbz589HgfwF8PJrr2HQgP7o7uTVUK6Zz5//E6KyZUO/Pr0tmzbsjAdm/wMcPCVr1kzyYCCHbyVRmNXF9W6Sdy0zzyAvTpSMTVqjC1ckyrtkmyRgxOYA7iwP1Cvl3uYAroC1bj+w1WoVNCgHFMmd8l1/7wcWbwMuJwC1SgBNKgCr9tgmI1oWfNuLk5qJUnetK2VyBWG9NWDIfIBCTmIKrtTZ1Wt0ndtVpIL0utOnT6NJs+YW0zq5U0N279mDUaPHWAJu1Nbzf5qPK1cS8M3MGciZI0eSltOM5/vXnAQ6tG/n95c/grRrfF5tJbfPIfbvAy5dvox27Tvg0OHDmDJxAipXtltYtlZtxsyZuPvuu7FlyxZwL3OSl6+F1qpZ07+V16enGYGVu4HTPnifm27X7WX1fe40d1BaCiBRn3h6KBYvXvzfqSJZsmRJVOT+/fuxc9cuvPC/lyyvZrZo3hxvvPZqqoksaamX3ht+CGi03Ad9fuToUbRt186yNVKXTp3w9FNP/rejCh935sxZ9OjVC/v27bOc6vnbr4t8UAstMtwRUHL7aARMmjwZH3z0saX0UqVK4p4WLVClUmWcOn0KY8aNt2SbUV575RW0ad3KR7XQYsMZASW3j3qfL3uMGDkKo8eOBQ8ccBS+4/3iC8/jXj02yEc9oMUquX08Bv744w98PXwEGCFnmilfHMmdJw8effih/17h9HEVtPgwRUDJnQ4dzywzvjxiIXfGjMiRIweioqLS4cn6iHBGQMkdzr2vbQ9pBJTcId292rhwRkDJHc69r20PaQSU3CHdvdq4cEZAyR3Ova9tD2kElNwh3b3auHBGQMkdzr2vbQ9pBJTcId292rhwRkDJHc69r20PaQSU3CHdvdq4cEbAZ+SOzBGLiMyR4Yyttj2AEbh+w/tbSAVacy+djce1q0lfWkqpnhni4uIcz59Lcv2207E4m6DkDrQOD/f6kNTcWZW7pxbODUS4cbBesGFXKXc8skUouYOt37S+HiDAXUkPnwZIcAp3FOVxxTzlJJQkMrNYJSWzKblDqV+1LU4Q4BE/x88Dl64kPfKYhyVy99RQEB7awJ1ruestd7HNcV3JHQr9qm1wggAPaDh1UQ5d4IkszoRKu0ge2fc9GMWcEccDFHNYJylaKNzmuXCkkjsY+1TrnAIC5DEJzaOOkyO1/e3ZsgAFooMPUroVBXMB2a37b9Ld4EmvZv929bmDr0+1xikgwFNYSOorbp76wYMdeKJpMAitDNaX5jd9a5L66FkJFJrjpNgOJXcw9KbWMVUEeHjh6QsAzz/zRKgFeVKq43nhnpTlq3siI4Dc2YDoKDnK19Lmi6KpnVkoSm5f9YSWmy4IUGuduWg7GDAtD2VgjQG2QBNq6tjsQmrK1evS3uRIbeqv5A60ntT6uIwAtTRNcHtT1OWbk7mwYLSYu4EgGTMChaz1oUVB7XzkLHDukm05L6V6KrkDoRe1Dm4hQL+amouHA3pbaPrywEB/rn2zDnmyyxIdzW8u5bG9Z0hq6xHNrrRbye0KSnpNQCBw9Rpw4oIEjnwpuaKAmOy+fILzsml+06fmP5Ka5vfZi7JGbxJv3KmVktsdtPRavyFw8rwEj1LNe/ZCDWkCF4tJ3+Aal+Kiqamt2XJc0qK2dmUpL7kmK7m9MBi0CN8gQCLTvySpaZqmp1jM89yiQX0ljNAz+YSWAj+TyCS0t9qr5PZVz2m5aUKA6ZMc6PzfX+Kr1FQSmVqapj8/MyDI4CDNb7oe3hIlt7eQ1HK8ggB9y/hzwAUf+9WuVJYmcnGufXvpzTGWlzsKyJdTnk5NTVIfPpM281vNcld6U6/xGwIc6CYP3JtLW2ltELPWmA2WFqEPz3VqRr8jrDnsXMLzlvmt5E5L7+i9PkOAfjW1NE3w9ParXWkUfe4CuQC+ceWu0OSmP01tTVJz0mLOe3q1Vc1yd3tMr/caAiQzo8L+9KtdaYy70XOSmlo6Xw6JfpsNIpj/nZ5WiZLbld7Va7yKgMWvPgswGSUtSz1erVQqhbm69s3kk5hsEiijUFOzrVyzTm9Rcqc34mH8PJrgzAOnr5meGswbkNM85+uVWZ2Y59TszPum+Z0lQiYsZpOxnf60SpTc3uh5LSNFBDjYuYGAvzSYt7qHxGZqqhGa3HyXmgE3+tScvEhmttOfpDb1U3J7q+e1HKcIXLsh+5a5+351oMLJpBOmh3KDBxLdmN+cvOJOeXedOq0YKLnTiqDe7xQBvuDApIwLVzzLiw5EWKmpmdhSsaCQm8J1aka/L14JvBoruQOvT4K6RjTBz16WjRP8EUTyBXj0qelPMx01R6SY4PTBSWpOXoEqSu5A7ZkgrBdNb2ZbBVuwLDmoqalzRgLlCsj+5san3nYYyBklRA9kUXIHcu8ESd24Xs2MK5qm6fHWlq9hoVaOyQEUZvJKFtHS3PWEPjVfN2UbSXZuy+TP975Tw0HJnRpC+nuyCNDs5ltbTBsNlvXq1LqTATOeRGK0MtepD522bmnkcDO1et40pqamVp+0/K7kTgt6YXovNRe1NJd8PNlEINBgo/blMlfZfBIoY/voYuw+JmvVyZrtkImAa9uBKEruQOyVAK4Td9w8ciawlnzSAhfJXCaf5I6T5CT1nuOuWyOBbJ4rudMyMsLoXprg9Kv5kkco+NU0u7lOzTVrRsMZ9WYw0JMNF83ad6ANByV3oPVIgNWHke/zV4AT54Kf1AyMMUBWJLdtjzRmktGn5ksdnkqgHkmk5Pa0R8PgPpL6WIj41dw2ieY3z9Mymw/uPAqcTuEcMXe6mGY9c88DSZTcgdQbAVKXQNjiyFtQcLMFamq+1UXzm23jkhYTULy9Hu+rbZk8xULJ7SlyIXgf9+9idNhyKmaQt48+NQ8Y4JG2FPrUNL2PcksjH7WNFkHRGFkDDwRRcgdCL/i5DuZVTAaTgl24LFU2v2SWUaid951Im0/tDiaBdCSRktudngvBa/niA7OvAnGLI3fg5ob+JWLF/KbmZHR//0mA+52nd9sC5cRQJbc7IyiErr10VV7uCOQXH1yBm8knNL9JKK5Tk8g0vxkB97ZP7Up9eA2tB6au+js1Vcntao+FyHUc8NTU3CkkmMVyRnW0kIiBMmrq4+fEBA+ErLlc3JfczyeGKrmDeYS7WXdzlnMgDH43q/7f5SRy8VjZKpjmN9ty8JRo6/Q2v1NqA7U2Jx5/pqYquT0dZUF0H01vLv0E824oJAnNby43UWtTUzMNlvnt3AUlEMXf5rmSOxBHhZfqRE3G3VACcZcQV5tIgnCLYL6gQa1tXi/dfwLgFk6BLjwyiEE+f4iS2x+o+/iZHPPUaMGcB04ic824QE4hNV8pZZDsoB8DZZ50G83zEjH+Ca4puT3psQC+h341g2XePFAuPZtrDgCgxstiPXqHpKYJHqjmd2r4MJ+dLkV6i5I7vRH3wfPM+9XB7FfTjyahubuJWadmVJ9r1cEcK2B3W44kipaXVtJTlNzpibYPnkW/ky93BOt6Nc1W+tRMQDHm96lLAF/q8Nc6tQ+6yVJk8RjbVsi+eoZ9uUru9EDZB8/gEhA1Nbc5CtalLWozmqvmFA8G/7isFSp7sTl2O08l4RJeeomSO72Q9tJzaIJb9i0L0q2DuYk/zW9ulMDXJM0kxYMLmAobypKWE0M9wUXJ7QlqfriHpE64GnjJGq5CQZObS0Il80qgjKTm22fc0igQjt5xtR1pvY7vlXNZLz1EyZ0eKKfxGVwGOmI9fyoYdxnNl1MCZSb6TXdi73EJlAXBUnUaey/p7em1LZOS2+td570Cqd1oflPDBZtfTU1NUvOFDrOjKHO/uaQV6ua3KyOAG0j4OjVVye1KT/jhGssZVOeD70gekpqaqVgMQBPUHC+055icx60iCHBZjAFF+uG+EiW3r5D1sFymVzK4FIznbHH3kwo8eseafMKkky2HgcsJ4Wl+pzYEuEtMdNbUrvL8dyW359h59U6a3TRbzXE1Xi3cx4VxeYebA9qf0nHgZPC/Vupj2CzH/xbz4ZFESm5f92Aq5TMJ5fwl4MSF4DqSh+YktxTiyZc8AZOBMU5MR04Dx4OsLf4cAoxH0Dz3hSi5fYGqi2VyCYjvIQdTJhZJnTkCKF8AyG5Np6QrYbYJdrHpepkVAeLJNf/IzN6HRMntfUxTLZFH8tAED7b1XWpqmpE0v5k2ypRX7nwSjNH8VDspHS+gec7oOf/3pgQVuWn6+TK66E1gnZXFIJll62Ceiunrh3mpfOLNtEmajjx6h0I3guvuTBcNxnV3L0Hj1WKILVcZvClBQ24GnI6dk8grB5qv1wi9CTLrbk7v8Ga5viyLmpnpoXyhgxFdTkbEnpskMD6g4l0EfHEkUdCQmy8UmPd5OfDo7zFJItCFL0FQwwXS/l6pYcZTOkrntZ18yXfDtx2VgFmwJdOk1tZA+t2yLVNu71mnAU9upijy9EVnQSf6KDRlzPlPgdRRrDc1XDBtcURSc1M/YsoJlEknXHNnfCAYtjQKpP73tC7ePJLIp+Q+lxCZJt/SHAGTml/H5YQ8djt3eAqsN+7jJGTZDSWI/GpmS5HUHFgUWkgkNf3q1LD3BmZaRmIEmIfPzSvSKj4j9+5zsciRLdISTfVEuFUQNYarYtZd+TqhvzaDZ515JE+wECJTBqBUPiDGqqmJNV/oUFK7Oup8cx0tKObkp1V8Ru7TN2KRMSLS8uYPs5VcTackMeijcnnFEzHb9VCbp5cwWMbTO4Jljy/mfHPphdYOtzRiPIAxjWCLDaRX//rjOYwnmYw/T5/vM3JvPxOLHFGRFn+Yg57Hpqa2aR9NWg4wBm7SKpz9mDnly6g616tJ6mB5y4nRbw4arjbwBQ/2C1cggjWXPa1jJJDvZ35+UQbX0rD26zNybzsdC/rcTHrImkUGEk305ExWRmHj3NDwrnYMk/OZfJEGjJI8im04eVGIHQxCIpeMta0uWLA+JdpaJXARSGtqqk/JfTYh0jLzMFhDTUoTfd9J4Pr1xID6Og2Tpjo1Fs3RtArdhVMXU7dC0vocb9xPq4WTKxMkzI6iB6zr1MG0NOcNLIK1DHLH09RUn5OboJr8WWOiU2OYwUWTlqZhegShqMFpqptXEt3pcE5ADJYFg19N85sBGU5oXC6ku8O9vwPtPC138A/Xa7l7DV/OofXlrqQLuQ3Bi+SRXTlIEGY68e2hU+l84LvZpC5rhGv+DIlx7Lyc3hHowkmL2wRzC10K68619l3xgV5zrV9KCHiamppu5LYQPINEaUlwasE1e9NHYzsDjjNi3hRMdaZbnjgnwbJAz8oyp3RwnZrmN60gHrvDLY3U/A7+icMcrcSlS3ckXcnNinHgkdw0kZkBxZ06/HWiBEGjq8CMLHuzh341E1ECnRisMzdJsOTaW3cU5QEFNL+5PKcSOggwXsRXQ92Jnqcrubl0xJf5mcrI94Hp/zILjQT3J5FIEkbVGXijRRHor2LS/OaExAPmjE/NBBomoARDTCB0KJe+LeGhiNkiXX9mupGbhGGOuAmccQaqXEgW6qnB1x9wvdLheiWtsvy5gGJ27/4yi497f7uaJBSu2IVCu9n/PPmUrpcrki7kponLLXodfVcSvGx+SX8kwTcf8q8GdwUwf1xjzG8Gy3j0juX117OSJhqsZ4T5A8dQeCaVoatvQ/qU3KevRFqOk2VEPLnNCewJzoG69Yj/fPBA63y6CTS/ucpAn5rRb66xM9lHtwkOtN5Kv/owzsLlztTEp+TecTzSJc3iaKJviPNfFD01wNLj9yQnX0Isn53xwbXfWnpgFY7PcDU11WfkXn4gFofOue79c0CbIBu10qaD4elH0uTicqHJpuPRO0wV5Tp7sGzNFI6ES+82c3ccBoFTEp+Re+m+WBy94Dq5WUmLic5XELOLL7ntSHhEf+lTm5MvzdtsjNozAOnp23HpPdj0eemPAHdtSSmlOqDIbQheoSCQK6sQnEG2UI0Ek9TMuS+XX5bhuJJAq2X3seB50yz9h7Q+0SDALMuCKWzLFHDkZsU56MtbCc7BHoo+OM0qHmdr0mCZdMLztPiG4OnuAAAgAElEQVR/euTZK0VCAwG+k898EWcSkOR2NNH9ncnmzWFA85sZZeaMKC4T0vzm66PqU3sT6fAoi0lM3JbJ2YslAUtuQ/BAymTzdLhY0lwjgeKxsmsrNTNdjv0nJc1VRRFICwLJpaYGNLkNwYM5k42kLpNP3sllhhGtEB69Q3Krpk7LkNZ77REoGC3HAttLwJPbEJxBJyZ0BEsmG+vKRH+z7TKTefgeux69o6T0BQJMSWX03P5IoqAg938+uDVVNVAz2biUR01NH8j41AyQ8dXL+LO+6FItUxGwIZAzUl5jNhI05HZmogdSFJ1+D/PkzY6VfMtt1zHJLFNRBNILASZAmU1Bg4rcBIjBqXLW10Vpov970L8pmczx5dE7fBWPdeOaPF+9ZGZZMB3Nm16DT5/jWwSYL0HznGMx6MjtzET3Ryab2Tieu58QSE40R8/IRgmBvnOLb4eXlu5vBMzad1CS2xDcH5lsNL/pU5ujd7iLDDcf1FM6/D2k9fn2CHCMVo+NR7aIBLeAyRAXF5fqKo4nueVu1cJqopPgDF75OpON5k7pfPIsamruJrMnXvYvV/Pb3Z7T632NAN3FO0sEMbkdTXRfZLLR/OYaIjPLSGqzowy3Y1ZS+3qIavlpQeDuUvHIFRmkmts03P51UW/sycZkE56SwpfiufsJ/+bB8zS9uaylPnVahpzem14INCkZj9xZg5zczpbJ0rInm0l5NTtN8pQUnqelL3Sk17DU53gDgZAhtyG4p5lsXBvkGiHNb3P0Drcz4nvV3LVVRREINgRCitzOlslS25ONe5Plj5ZUUbNOTULz0EL1qYNtOGt97REIOXI7M9GdZbJZdhSNBopZj94x54JzowT1qZUkoYBASJKbHZNcJhsT62l+c/8pam2u6R06JcknuqF/KAxpbYNBIGTJ7cxEZ0ooNyAkqZkmag6eV1IrIUIRgZAmtyF4RWuiC/+mH83Ek73HQndvtlAcqNom9xEIeXIbE52ZbOcvS6qoP88lc7+L9A5FwDMEwoLcnkGjdykCwY2Akju4+09rrwgki4CSWweHIhCiCCi5Q7RjtVmKgJJbx4AiEKIIKLlDtGO1WYqAklvHgCIQoggouUO0Y7VZioCSW8eAIhCiCCi5Q7RjtVmKgJJbx4AiEKIIKLlDtGO1WYpAwJCbW7HWKg6ULwhwb3C+5LHlMLDxIHDxin87qlIh2diBmz7wNdHkJFMGoGF5+XXpdt3Jxb+9pk/3O7m5ecLtZYFqRZwfIM7tinmiyLIdaSdLtixAlcLAuUvA5sOud37jinIfT+ic+Rdw7rLze7m3+ZBG8tvwpbr5g+sI65W+QMDv5G5RFeCmhjzidt0+OTyP5MuVDSifH6haWI7BXb0HWLkrbRAUiAa61JGjdGetdb0sQ27esf0oMH+jktt19PRKfyHgV3JXLgw0qQgcPw9MXuUcAp7w0eMW2ZGU1/Da5IT7i6d0FEpayc291bh908LNwKZDSWvhjuZOra6OpfN6irP2pfSbM6zcfba/Bqc+N20I+I3cJELf28S/nvan7GGWnHCjhWaVxZResCnxVTHZgCpFxCfmoL2QIL76jqO26yIyAQ3LAbmigGJ5xFzmSZyU37an7tMbzc1n31FB3IOJK+UII3tJjdw84IDuB/dvY115djdjCqYu9mXxmdwW6u/9QO0SQMlY+ZW7sv61V3aR4fMalAPyZhfS7+dv+5LfjKJEDFCjGJA1ArjO608Ca/ak3d1J2xDUu32FgN/Izb3MutYB9hwH5qxPvXnVi0qQbWe87draxYGbS4tWp1l/9RoQHSV/07z/+V8Z6NyTvGMtICoLkD2LDGZDTE4sPKUkJTHkpr/NAwDvrADEnQJ++CcxkZIjN7X9zaWAuiVlZ1X67qwDJxvGHHgM8a9bEx96MKABEH9WLAUeyXr6opz9zWfsiAf+3AO0u0nu4WSVO5u0gLu3OsOTFhItJU4KfD73keNRSbx39t/A4TOp94FeEVwI+I3cZfMB91QDFm+VKLS7wh1MO9QSQs/baNN+WTPLoOfkQfJx8jCSVrOc5OY2TW1uAkrGSJBv7T5b+cmRmyeYNK8iRPp+nRxLROEKQcfaQnJaAiSwEZKbVg33UP9unUxGvL5rXSBnVplUaKH8tk0mjNxRQNubpKxv1srkQ6GFwAh+jaLAgZNCfLPNFK0Ian7Wa/wKwVIldBDwG7mpxW4tLYON2sZdIZFoYvM0EA5ae+Hxpe1ryqTBycPb5KYG7X6zaN2pq8V8piRHbk44NKtpUjtaCSbusGKXaGN7cvPzhBWJo+5mgjpxAZi8MrEPXrkQ0KRS4nbzBJUeN8txSN/9ndRkv6U0UK8ksGI38Odud3tBrw9kBPxG7tvKAjSrv/9bBr03xZCbvuzsf7xPbpZYNr9oY5rOM/4S8zg1n9tZGysVBO6uDKzbD/y+PTG5T12QpTd74cTCWAU1MzW0vfDgws61xVqh1UIxVsO8DYldGnMfJ6iBVhfAnRUEb/aXluUbBPxGbgaJbisDzF0v/rEnwoP6aKLmyipnfNEUp89dKFq0qi/JzfrS96Zp+88BSVqhr5/cOjd9Z0tdo4BYa13zZJdgGOvqjNw0yR0JbMhNa+XbdYlRy884Rt3E5K5fBqhTAuCxSvS1nUn1IhKzmLLak17QewIVAb+Ru3ReoFV1YMk2wJMTOUmIe6oCxWOEHEZ4fjYHPjWrr8nNoFSv+uILU8Mye80ZuRmdpp9O8pHkRmiiHz0DlMzrO3LTp65ZLPXhx7oruVPHKZiu8Bu5qb261ZMo7SwH09MZgC2rSXCJvinFaCSap2v2AqcvyNISg0Jcarqvnu/JzXrQ77+3JnDyvLgAfepL/ewz1JpXlYScvSckAHfmotT12jUhduvqviO3wWnuBgkGJicMyvEMcpXQQcBv5KZ/ykAPTdX5/wLbjzgHlYruVqtpSQ1PTU+hb0lTfMLKpEEqntjZqXb6kJt1aVAWuKm4rK0z286R3L1uBehCMCLteMY3T0NpmozP7Q2znBYMLZyUViVYNz17PHRIbVriN3KzAjkjgZ63ylLO1D8BBpDshcQukse6ngtg1DKAZjeFaaRmCckxmYQ+JjVWcmb52cvA2OWud6b9Ondy2o++Ls1uI/aam5MYCTRpVWISsX0tqwN0UXzlcxOjnrcAl64mjbyzrlwfb1MDWLFTUmtVQgcBv5KbMNYsLpqPyRXMsNp2VHLL82QDSuWVI3YZqPpxY+KsM2NuMjLMYBYnBr4YQi1P7Ul/2JHcXDfud7uU9/sOMfOdZYc5dq8r5GYwj9aE8f/tyc3lKUbFdx4Dlm6TF09osTCgWDqf1MdX5OYEwgy+uyrIkh0tH+bW0/dn3j6Ta5jkw0g5v1cJHQT8Tm5CyTeuahUDGD12FOaSr9olWVn2QiLzpRNmb9nFqCzryCQKieNIbt7PteDGlWz3UJuS5CmJK+Tm/cZi4Gd7clN7sq72mp3XkGybDgJcFvQVuU27mFfAf5xI7IW+/+rdniUShQ4NQrMlAUFuQkuCFo2RZA9Gny9cBnYck+SL5ITah9Fy5p5nyyxrv+vjxMxnoIvvgR90cj+XkyoUEI21+RBwyi4zzNmzmBPOJTaWb9wCZ9exPrQ2KLQomGJqhBq9RKxocMYbuLbPJBvWgXnxrMNxu3fFeS0zyRy1Ke9lm1kPk4VmnmF+o2VwxEk6KdNvuXRHq4jBvPhzUgfipRJ6CAQMuUMPWm2RIuBfBJTc/sVfn64I+AwBJbfPoNWCFQH/IqDk9i/++nRFwGcI+Izc64/F4uTlSJ9VXAtWBBSBlBGonT8eOTK7l3aYIS4uLtX4amxsLCIjldw6ABUBfyEQHx+PhAQlt7/w1+cqAj5DQMntM2i1YEXAvwgouf2Lvz5dEfAZAkpun0GrBSsC/kVAye1f/PXpioDPEFBy+wxaLVgR8C8CfiE3NwbgK54qioAi4BoC3A/A8Y2+1O70C7n5NpL9Nr6pVVJ/VwTCHQG+4nyH9QRZV7HwC7l5dNAq3SPb1T7S6xQBy0k5d1V0Dwi/kpunhvBMbhVFQBFwjgC3nOapMkpuHSGKQIghoOQOsQ7V5igCBgElt44FRSBEEVByh2jHarMUASW3jgFFIEQRUHKHaMdqsxQBJbeOAUUgRBFQcodox2qzFAElt44BRSBEEVByh2jHarMUASW3jgFFIEQRUHKHaMdqsxQBJbeOAUUgRBFQcodox2qzFAElt44BRSBEEVByh2jHarMUASW3dQzwsPtDp4GzlwBkALg1TYGcQNbMiQfJyQvAuUtApoxA4dyhO4DiTgHXHfeqywDkigKis/q+3acvAmcuynOIM/F2VxKuAct2yIYFV64Bt5UBWlZzt5TgvV7JDeDIGeCJWcCJc8A160lmGa0D+YkmwM2lbB386a/ATxuBPNmAKf2Dt+NTq3n30cCJ80mvIsnurgQ82ji1Epz/zm2yKJkzAnmyJ1/GxFXAlFXy+8S+QN4c7j/v8RnAvwcBczhd+5rAkEbulxOsd4Q9uRdvBT5eCFxM5syzLJmAJ++27UHFa3+0knvGwGDt9tTr3XUkcNwJuc2dNYsDb7YFMmdKvSz7K3qMkcm0aB5gbK/k7x2/Epi0Un6f0g/Il9O958SfBfqMBy5flWfdfwtQLh9QLMa9coL56rAmNzt+4CTg4CnpwjbVgbY3AST0wi3A938DNA8jI4AxvYD8OWUisCc3zXmSgFsucwBS4zsKf+OurbyW5j7NWm43a+RSAsB/dAeMyUsCcDvamOzOTVLLc88BEZnEiuB2z+cvS4nZI5OSjr+xs0lGV7SgIXeBaODLblJ3muofLwL2n5B2ftoFqFgwcWvptlxOALJFJjXfT10ABk8WvLgH3iedpW05nZj5zsh94Qpw5ao8LzpK6nTsHJAlAoi1swKI5c544KlZgkuHmkDXuklxYVlmAuP9LCeUJKzJPWElMNGqHXreIrO7vczdAHy6SL559C6gVfXE5B7XG3hkOrD3uFwTmwMY0SPxoN5zHHhjHrD3hK3kCgWAN+8V/5UybgUweZVMIiPvB96aD2w5LL/x2pdaycRihLGB574H4k7KN/Qlubvl6/Pk71dbA/XLyGcObrZxymrb/SQWrykRm/xQtif3pL6263YcBYZMkb871AIGN5TPNOFZp13xtmtZp6fulgmFA63DsKTPu6U08HqbpN87I/d7PwMLNsu1w7oDb8+34VqvJPBqG5kQDZ6Opb51L1C3pEwKnLhHLwfol1M4wQy4HWheJfHEmzxCgf9L2JKb2pRam+TLGQlM6ida1V7OXRYNQCkYDVCLGc3NHSVp4hkSmvuqFQE+6iR//X0AeGWOTaNyAFkCdhCyDu8O5MhqG4wcmHwGNaS9lM0PfNVNBt2+E8CDU62a3u6iMvlsdTXkpmYa+q34nY5C6+Tt9kD1Is4HaXLkPnga6DVW7mlWGXiqKbAjHnhihnPXpmw+4OPOEtDyJrmL5QH2Wyc304LaxYG32gGctDlZOoohNyehtXuB6w4nxdMa4UT5QksgkxMLLPDpnLiGYUtumm69x4lZRp9s1P2uRWQNuQljjaIANX7CdeCrJUI8CrVvyVhg8mrgj51C7nfaAQVzAYu2ANRAHFgP3Qm0rZFY05TLDwxoIBrli8USweegmzlILIIRvwMz/5LnMEB0700ATWGWaSYFQ+6f/wU+WCCak4Gke6qKGfvhQmDdPqBiAeDzbq6Tmxrv/V+kDZQX7wEalQee/14OiuCE9UprgIT+9xDw6hzg1EVgUEOgYy2Z2Kj16XIUzgV80U1coEiHFQmWnZrmvr2slMkAHTFhuzg504/PESkT3eMzRUt3qSP/orIAmw4CT86S+t9SSgKDxPedn4B1+2UCpRvCfgh2UXKfB0rEAMN7uEduDoJp/cUnpnDJ5dW58plErl1CPlM5UINyMiFhtx4BXpsr5O5cW4hszEgOsi/vE3JQft4EfPCLfB7fW5aEBk0Cdh0T8/ObwTZr4/t/gC8Xy7WG3L3GSTyhelHg2ea2obrhAPD2T/L3xD4y6TiK0dwkDPeHv3oN2HbUFkGnj8o4BAnLIBml961A0yq2kob9BizdLhhNHyDfpyWgZm+Wj+4JFLcGxz5aCMzfKJMYJ2nixImWWNEt6V4P6F1fnj9qGTB9jXz+6j4biTfEAU/MlO/71Afuq5cUk2D7JmzJzcHKwc+Zn6Yw/WdXzlMymjsqM/DDg7bu/msv8Ox38rchN0nNwfT7Donaktz8ny4BxZHcfD59SeMLkxjGjzbk7jhcgnycAL7ubnv+yt3A/2bL3yQ3Cdn6S/mbQSv7tnFiMb4mg1pVCicdtilFyxmQo59Md2HzYeCRaXI/yWUfUCSxqDkp8x+ROniL3JwszMRqCOsKuV+eI9YU5dvBtmAe19Q7DJfvm1QCnmkWbFROWt+wJTehMB3NQUfNbTSBgYkDd+IK+evuysCdFWw+tyvkpr+9fKcMeAZ8yhUAckcBXy8VTegJubuMFO3JoBgnJCO/brFpY5K7XimgxWfyKycLBoqcyZ3lJRDoKIbcjBMYLUY3lFqRlgBjDpRNh4BHp8tnPiO5IN29NSSy729yM1jJ5U/KjAG2tXZiSmxNO7j8GewS1uSm6calGWoxLicx8EPSUOgrfv6rmJUUE4xxR3MbLUvfkH4nhQE8+p2ekvu574A1e6Wsz7valqI+WQTM2yDfG7P8gSnA9qNCuK/vsy2PcUmKFgs1HYOCziyW5AJqjgOey1MMlFFL27eT13GFgO3kc8zE6W9yc9Vg7B+JceJfJDyJTzErI0ruZJI/kgEmQ1xcnEOMMumVsbGxiIyMdFqEOQjQW2eFMUD0yyZ5FAcho870p/ccs0V/uaz0civRwO6Q2xCEwRmuCXMSYZDHLBd5orl/+hf4cIHUl1YAfXtaGAy8GXPfkJuT14CJ4t8z6eT55sDpS8Dz30kAKnc2YNoAy/J6EnGV3LyRQTsG74gPA3dtaogPPGypxBsalJPgG8WQm2vKXEYjNo5r5bwutYCap2Y5I/tDJlvxywYwA5HZcu/9IoFJtoFLf+4mzQTiRBDWmpsdQgA4k89bb0tTtO8orou+0EISICjukPulOcAKq39H85ZZcHmzi1XAAJsn5CZZhv0O/LjB5s+yXu1qAt+tS6yRSGoSzHzvOADpN3Od2Zm4Q26S4uFpEgV3FE7CnNjMmj6j6i/Oti1DcS38Obtgn7nfV+Rm+ZzM2Y+O57wzz+DxJkBjN0/EDERim7GtBwEC2HhQcsaPnrNpxdvKAo3KJe46Zqf9sx/IHCEJGkZ2HwOm/Sl/MRuqVF6AJuusv6RsmivUUp1qy2TCLK6bSwN3VRDTf/kOIGNGoN9ttgwyrqEbYg5uJK4DhRqakeu/90tW1e1lJIJO0lDsk1j498pdEnlnII7BNa7Z04ROKYnl88XyggxJ+cAdrg1ftp9RZ+YHMMpeoxjQnhl/DplfTET5fbsEF7lk6Czfm79zBYLCJUNOjnPWAxvj5LuH75IlLwpNaraRbePqA3HiEicDbXz5hf3Y0KEf6a4QW1qCnAQ5CbWoClQu5Fpbg+GqsNfcwdBJ9nU8fBr4c69kp/VvYPOX7ZfCPugoa/Aq4Y2AkjvI+v/XrZJ2SWGWVtUiEj3/54CY+tRaTKIxZnCQNU+r60UElNxeBDM9imJQjhFfRsbp6xqhScrg2mONgXwevB6ZHnXXZ6QvAkru9MXbq0+jT86IONMqaxaz+aBefYgWFrQIKLmDtuu04opAyggouXWEKAIhioCSO0Q7VpulCCi5dQwoAiGKgJI7RDtWm6UIKLl1DCgCIYqAkjtEO1abpQgouXUMKAIhioCSO0Q7VpulCCi5dQwoAiGKgJI7RDtWm6UIBC25tesUAUXANQS43x03xXBH4uPjkZCQztssnbgAcGteFUVAEXANAb5YxA063RG/kJsVNHuFuVNZvVYRCGcE7M+mcwUHv5HblcrpNYqAIuA5Akpuz7HTOxWBgEZAyR3Q3aOVUwQ8R0DJ7Tl2eqciENAI+IXc3Leb+36rKAKKgGsIcH89HtzojviF3ObEEXcqqtcqAuGMQNCscxty80xns0l/OHectl0RSA6BK9eAE+fk0MagSGLx9llhOjQUgVBFIGjTT711EGCodqy2SxFQcusYUARCFAEld4h2rDZLEVBy6xhQBEIUASV3iHasNksRUHLrGFAEQhQBJXeIdqw2SxFQcusYUARCFAEld4h2rDZLEVBy6xhQBEIUASV3iHasNksRUHLrGFAEQhQBJXeIdqw2SxFQcusYUARCFAEld4h2rDZLEVBy6xhQBEIUASV3iHasNksRUHJ7MAYSrgHcdC5jBg9u1lsUgXRCQMntJtB/7wc+XgiUyw+82NLNm310+aUEYOsR4PJVoGA0UDzGRw/SYoMKgbAld/xZoO8EgMQoEQMM7yHa2F5W7AJe+kG+aVgO+F9L4KFpwNbDQGQEMPch//b1odPAl0sATjgktpFCuYCudYF7qvq3fqk9/ep1YEMccO06kC+n9IOK9xAIW3JzZ8gBE4CDpwGegji1H5A9MjGwXywGZv8j371wD3BHeeDfQ8Cw34DqRYEBt3uvI9wtia7BI9OBHUflTu4EmzmT7OnOvd3t6+xu2el1/ZmLQI8xwMUEoGU14LHG6fXk8HhO2JKb3TtrLTB8qXT04IZAh1qJO73XOODgKflu5kAgdzb5fP2G//3taX8Co5dLfdrWAAY2AHiSI7Vg3/FA/DkgOgqY1Ecmr0AUJbdveyWsyU1Tttso4OwlIHcUMG2AzTTffEg0I4V7Pj/XXD6//RPA33JFAZ93tXXOjnhg7B+iSamJcmQBahQDet0qfjBJN3gKcDkBuLU0MKSR3DthJbBws3x+oBFwS2n5/Pz3wIGTYqq+3jbpIPj0V2DueplkxvQCuBusEboTh88AmTMCd1cGOBEs2iK/vtHW5pPTNXlylq2NvW8FHp4GnL4I3FQMqFMCGPcHwDPR2V7Wr0ph4J2fgC2HAcYTS+UFnm9hm/ie+gY4egYonRe4s4K0j8/h/fVKAQ/fKc9bvFUmJ/7GyTKrdR/6J+8GahSVaxZsBuasB/afAG4AiM4qvz1yl1gplI0Hgfd+ls8jegCvzwO2HJG68dqnmgpOP6wHTl2QkzeaVwG61JHJkLJuPzD1T2DPMem7bFkEo861gbpunmudtKf8901Yk9uQ6M890gHDuwOl88lnkvjXLUKeL7sBZfPL9898B6zdK2bwjIHyHQn96Awxh6kl8+WQQcuBwkFCfz4iI/Dsd8Bfe4GcWcUS4ODqM95mHdxeFni5FcBO6TBMym5THXj4rqQD5Nt1wNe/yfcVCwLdbwbK5BXf1VF+3wG8Nle+fbY50LiifJ65FhixVOrxfgchQ9eRwPHzQLEY4OR5gH4x4xKUqMxA/mgg7qSQjRMWpVZx4N328pnt4aRUMBeQcBWg+8P76UZQWlQFHm8MLNwiVhO1N8vKEiGk4iTK8uZvBD5bDFy9Jr9xcjD1qVQIeLOt4EhiDv1Gym5WBViyVZ7FCYNycylg9R6JkZh2sDz2ddE8wK5jwENT5R6Wx+8Yy+BEwPaOuF8m52CUsCf3D/8Any+WrnvibqBFFenoAROBuFNA3hyiGdnRFGfkfmUOsHynEHhSP9EOJHe/icDFK0Df+kC3eqLFJq6Uckb3lMFEy8GQhH9P6w+sjwOe+06uY0S+UTnnQ2vwZGBnfOLfSO4e9YAmlYEsVu1GgrX+QgZ8k4rAM1Yr5JlvgbX75ESKCX1FMxpyU6k91kSCcu//AvyySZ6TP6doSJbZexxw4YpgNLV/YnLzr971ge71gGPngAemACcvyDXEs1geIbYzn5sHT3QfLdcWzg2M7y2fJ68Cxq2Qz7QA2tRITG7iPq43sOc48Oh0aS/bwX6ltn73Z5uVRMupfU1g+hpg1DIpc2IfmZRI7P4TJUhJd6d1def4B/q3YU9uDrjOI6SbaHJ+0hk4fxnoMFxIR236UisZJBRHcnMAtP1Kru15C9Cqmq3L3/1FNDUH3ZT+EtUmoSivtBZS0AymFXDuEiwPIemX7bDFAib0ARj9diZ0J5ZsE5OSk4m9FIgGPuho0zofLRRtSPdj5iC5sudY0VJ0E15tLRrckJsWB+tC2X5UyEl5sgnQ3BqFp+tAq4eTwqzBgpHR3NSUfI6ZFCetAsZbifnWvWLuJkfuv/YBz1pxIrk61ZZn0zJqP0xIR7eB1oa95n6tjbTF0k/WiYvYEUMKMbrPOmnQBaG1M28D8Mki+Z1avltdsdJu3BAXzZj/znsgsL8Ne3Kze8wgjcgETOknHW4G4mddgUoFbZ3oSG6a5EOsAz+5rmYUnpqNE0CnEWJq9rgZIAE/XCAahATaGAe81wH4caP4pJwUGAdwRXbFi/+5crdoYz4rxqrJSDCWT/OT2uzjTkCBXEDPMWJ2M3ZA055iyF25EPBpF/lu93Fg4ET5/HobW1zg1XnAsu3OyV0+P/Dlfbaa2y8r0q+mJk2O3PS1jR/NeMMtpWzlUKPuPS5tmz4gMbk/6wLQZKe8OBtYtVssBFoKFGpk4k8x5KYLQi1/5IztGRwHrD8ndloHnKiCUZTckEHAwUChuUZi09xkkIpmnr04knv3MWDgJLmCg8E+sGXuo3ncpa4Mkhe+Fx+QfiW1Ap/95r3ip9KHZhBn+S7xa/vdJuvVjkKC8j7WMUekaBx7MQObzx3VUzT/uctAn3GyVMbJJHMEMP1PCdjxGiPeIre9xmTZ9n7/0KYS6EuO3HQB6ApQXm0D1LdqY/49YJIEvoxlYa+5PSG3afd3fwN/7BTcSQqTN/DgHcC9NwUjtaUdv20L84MA6eP1GitajMtdnOEp9Dcfb5IyuakhW38pfjqJOaCB7Xouo5GA1DL8R1m+A3hlrgSPeA//0Ww8cR54bGynOUsAACAASURBVIZEjWl+mii4M5PcEnmfLL4lTfqxvRKv0Rtyc/IYeb9twnlpDrBip0S4aY4zwESim8g96+ctctPEpxVE14PywS/Az1a/ne4Cg3fJkZuJLU/MlPs61gIGNZTP+06IL0yT+a4KwHMt0q652ffsb/ZD5cKCPc33QZMkrkBLgJNGMIqSGzJYSKxNhxJ34TvtgNolUiY3fzXLUiQTA0gVCgKHT8vSGAFuYPXbeS3Nv34TbJqBpvfkfqJZOw63PYuTDElLzexM7Ne5GeGtWUwCaDuP2bK+ODGQ3MasJKHpE1Pzs80W0jFKXsz2BG+RmyXStGdkngSiZiRxGDRkuxj9ZsyAfj/bzkBgy6pAq+pi0XCtniYzr+9cByiYE5i9XlwXyiutgNvKpp3cX/0GfLdO/GsmJVUtAmw/Any9VOobzMk1Sm7ruKZP+uBU26DnoKJP5xhQcRYtZ1COyzH0Ba2c+Y8tJWPFp6VGplBbckCbyDETZ5hAQzG+Pz+XLyD3pfRyyseLgAWbbMtM9pMAiU3/3XEZx6TP8lpGhhkhthdvkZs+Kwmz+bCtdGJAk7yBNfpPS4mrAgw0GnmnPVC7uFgyrKtjoJD+cMOyorUpaTXLmezz1CzbcqQ9FvTXP+wUvOfAK7mtvUlSMq2UPinl5pLODyzn+jJf0siWGXjULl2SpjIj10y64IBkEI0mL5eeOCDtZcYa0bAUEpumNYVaac4G+Uz/nRo/JaEGpnabsEJIxGU3mty8j4k3ziK99OvZBsqgBkBHayTaPOezX4HzVyQQxaAfhRPRMGsmX5fatlwAJodsOAhkjbC5LyZaTnK/31ESaBZvA8rmk7YyiGgvJDgzBRlDoKtyX11ZtaBQc377N7Bos7g3tIiIaZVCtgQUWiNmeYyRbk6mlG/WAduOyOqAcTuYd2Ai47eXsU0yNMl/3CBuAxN4OOk1rSymv0bLUx6D9r9miIuLc1RuSe6OjY1FZKRze5QmHgeCns/tOuiGKEze+N8PwMpdcu/X99mSc9wrLfmr7cltHy33VvlajusIqOZ2HaugvvLVucCfeyX9lVK1sJjt3tZMSu7AGSZK7sDpC5/VhEk5XN9lEI1RbK5pf9jRZtp688GMZnM5iYkg9rn33nyGluUaAkpu13AK6qtIagaOqLW5vs0UUl/tIsMXVphTTouAvquK/xBQcvsPe32yIuBTBJTcPoVXC1cE/IeAktt/2OuTFQGfIqDk9im8Wrgi4D8ElNz+w16frAj4FAElt0/h1cIVAf8hoOT2H/b6ZEXApwgouX0KrxauCPgPgaAlN1+20JM1/Ddw9MmBj4A5iYZ75PFFInckPj4eCQnWXGUXb/TaiyMuPk8vUwTCHoGgITdf/eOupCqKgCLgGgJMBTavwrp2B+AXze1q5fQ6RUAR8BwBJbfn2OmdikBAI6DkDuju0copAp4joOT2HDu9UxEIaASU3AHdPVo5RcBzBJTcnmOndyoCAY2Akjugu0crpwh4joCS23Ps9E5FIKARUHIHdPdo5RQBzxFQcnuOnd6pCAQ0AkrugO4erZwi4DkCSm7PsdM7FYGARsAv5Ob5UTzPSUURUARcQ4AHMpojpF27w08vjpizwlytpF6nCIQ7AkHzyqchN19j4zG7KoqAIuAcAZ48Sys36Mitp3zqkFYEUkYgaLdZUnLr0FYElNw6BhSBsERANXdYdrs2OhwQUHKHQy9rG8MSASV3WHa7NjocEFByh0MvaxvDEgEld1h2uzY6HBBQcodDL2sbwxIBJXdYdrs2OhwQUHKHQy9rG8MSASV3WHa7NjocEFByh0MvaxvDEgEld1h2uzY6HBBQcodDL2sbwxIBJXdYdrs2OhwQUHKHQy9rG8MSASV3WHa7NjocEFByh0MvaxvDEgElt0O37zsBnL8MVCgAZMwYmmOCe2sdPw+cuQgUjwGyRIRmO8O9VUpuADvjgZHLgH8PApcSZEhwwJfOC3SrC9xaGsiQQb7/fDHwyyYgJhswvk/6D59Bk4GDp4By+YGPOrn3/LhTwOe/AluPAOcuy73caLJMPuD+W4B6Jd0rj1cPngyw3BpFgTfaun+/O3es2AW8NV/uGNoMaFDWnbuBTxcBC7cAWTMDX90H5Mvh3v3BdnXYk3vdfuCF74GEa7bBzn2eDckjMgJPNgWaVJTfP14I/LgRyJMNmDEw/bu7z3jgwEkhNweoqxJ/Fug/EbhwRSaq2OxAxgzAyQu2tn/QUUjqjpj68D7e70tZvgN4Za484YV7gDvKu/e093+RiZnkHtMTyJfTvfuD7eqwJvf1G0CvscDhMzLgO9UGet4CZMkE/PQv8OmvAE1YyuR+QP6cScnNMq5aJ4aITEIYR7kBuYbX8jmZM9osAcdr+Tz+4z2cZDi52Ety5DaTE6+lNnaUiSuBCSvl2971ge715PNf+4DnvpXnNSwH/K9l4jtN+1KrjyH3VWv9iQPxcAKHBQded+OGtJH/kr3ObtL9Y2dScrMs00f2z2PZfAaF5bM+KZGb1ydY65RS3YOJ4GFN7hl/ASN/l+66rx7Q69bE5Pzub+CrJfL7U3cDzaokJvfI+4HX5gIHTglxC+QUc5F+rJFTF4B3fgbiTgLnrwCREUDeHMDQpkAxu+t4/aItAOt04rwM2FxR4hIMbGArzxm5p/0JzN0g1zStJCa2cSPMndR41HyU2Q8A2bLIZw5qajPWjdq8kZ025PffrrPVJzoKuK2M4GQmEHvNTU36zTrg7CUgKjNwcyngoTsT02HjQeDr34Bj5wCeHsM21imR9Dpi8No8sVLYFsZAWP67P0t5RnP/tt3Wh591sZ2sQVfr5Tly7YN3CI7JkZt99N4vwO5jYrFFZQGqFpb7WL9glbAlNwf1A1OBHUeBHJFiYjtqPG7ovm6fdG2pvECJWBu5eU/BXHK/vdibpwxYPTkL2HNcNHBsDgliXUyQQUOf2UwEJBEHPYX1oOlIklgIWxl4qqloN0dyr9otJCBROIBfbeNcC45aDkz/U8qrXwZoVQ2oUthGcscBbK/pOSExBmHq07wK8OTdcoepT4kYCdIZX96Ux4mJFhHlt23AGz/K5+yRcqjE0TMyMd5eVghLnHjwBH158zxaUtTCeXPK9RRDblpYHy6Q76b2l4mTsvUw8NA0+fx8C+DOCs7JzcnjkenyLLaTfXrotOBZKBfwRTcgOkgPvwhbcnOG7j1OBmTRPMCo+8V8S02Mz83rSucD3mgjA/r570UbUejPUStz0HHwsdx32gE3FQMI+MBJwPFzQN2SwJv3yuduo+TeYnmAdzuIT//qXGDlLrn/+yFCeHtyc9Dybwr3cR/eQwaoM2E7H54KxFvraK6h1qTVUr6A7V4O7A7DRYtxYNNCoaZ/ZY6Y8RROhqyjqQ+/61MfaHcT8PsO4JNF4ssThxE9aCIAXUZK+zlJftJZJtUl24B3fhILgjEEBvfGrQAmr5LntKoOPHoXQO364FQhPsVb5B76rUzgubNJnYjj/pPAY9Olrg80AtrVTG1UBObvSu7zMtg4AJ35y47dZk9ue/N22Q4hI4VErl0CGDAJ2HMMqFQI+LSLTaPSjB69XAI6E/uIKT5mufz+vl1QiyQbsUzKbF4ZKJvfRibeS9IfPi2kH9vLprWSG2rs7Jl/AXy+vfC5nOA+7iwWxfQ1wCjrc4d1F8JRaLpPWAFcuwE0rghUKmirD8n/7WCpE12KQZOAvSeAAtHA6J7Ahjjgue+knA87AtXtAnePzZCVClooTzcFhkwRi4gTFcs0S3Vz1gOf/eo9chPw+8dIfTkxcZIzMmwp8M1aIHcUMHNQYJI3tVqFLblp5vUeCxw5KwNwXO+kwStn4Bly06f84UHbFX/tBZ61Dl5Dbmoq+o7JCc3SmQOBr5cCs/8Wc5yTDImWnNhrSnMNLYDX27hmeVhIehnYEQ9sPgTQrKcfTCFhn20uZv7v24Vccx5MPvjHe0x9iOGkvlIOzWya1fRhDbnnbbC5Hcm1rUoh4JMuQKcRoqnpClm0vlXW7gOe+dZ75D57WSah1IT9zP4ONglbcrOjGHBhBJYam5qvcO7E3bflMDB+hXzXoqpEk90hN7UCI/GMst/mZE02a4RErr9YAsz5RyaXYT0A+q9GuHRFsnBwUSvak5tmrfFxU1oaunwVWLFTSqSZbDQx/+ZvXDGg2W601Ns/Ab9ukcnmhwck6k1hxPzCZfmfxOfvrpJ7wWZZZ6Y0LC/BO0cpFC0msJkUaSJz0jWyZq9N+3vDLOfg5yREocvEycSZDLzdhkEwETysyU1TkCYhhQObA4mBHiPPfQ+s2SN/vd1OorrukPuBKcD2oxKY4eRhfHr62CSMicRy3ZzlUh5rDLSsJp95Xa9x8vnNtkCNYjYy0d/9vCvQY4z8zpMcWX/6jo5C877lF/ItA3g0k41wiY7PoC9r1u6pZekzU55pBjSpJJ9PXZSJgGYsA3yMXrtKbuLwuBXrl1tJAM0In03fnu4F5cXZYlFQxve2TbrDfpNoPMUZuWnS07SnTFplm5iTC6gx+t/KikvXOkC/2211YjCV2DAIGqwS1uRmp5nlEX4mMSoXAjJlEFJS61LqlgBebyvkdIfcs9YCw5eKZUCT9+5KEqT5cokkjzAR5ctukljSb4JoT/qu1F7U9rP+kuAOzXdGgqktHaPlzNqir0/C1SoOvNM+mWj5MvGlKcy8o8/L9myMk4w1yh0VgBdaSGSa9WEmHAnX/WaZiFgfpufy84Q+UldXyc3J7OlZ4nszot2ljtTjz71SLp9pSMgg25vWqDqDls0qy5IYlwqJlT25ufpAM57WDetDC4mBwD/3AJcTxMpIKVrO/mE/0QphnYgh3Ykpq6U/uALxWpvgpHfYk5sDgWuny3dKxNZeSEp2NjWN0SrukJvRYkaCl25POjholr7YUtZTKRyMr86TAWkvHHS9bwU615FvHclN7UIL4+/9MolQ095lzaazL4d+9guzAboaJunD/ndq9Jda2VwCEoxr/JyE7IXBrUfulDV/+/qk5nNzYmKQjP48l5ochVYRl/G47HXxivjWmw8nvoranoFLe3Kzy16dI/1nhHXk8huX/uwnDWfr3FwC40oHcXGUgtESZDTLa0mvCOxvwp7cpnuYnsn8cqajkpTViwAdayWO6vLaGWuAvw+ID2yfzcXg1ETr8g3XdkvG2jqegSBqTQ5W+tXU4n3rS7KEvfC5Hy0UonNQMnFjcCOglF1ZHy8CWFf6o0yyMML1Y6PVGBRLbm2WkwDjCLuOiVaj/03NSHPWcbWAA3/MH7I+zYh61SLAoAaJYxMfLJCgIRN4Hm0staEWZVSb5nZMduCxuxL7rFzmmv+vWDHM0e9/e2Iz3bSJkX1el3AVGNDAumRpjeIzw47r9EaYfcdJlJNm17pA0dzAZ4tlIuPf7M9pa4D1B8QCerwxQLPcCCPxP/wjAVa6aG1rAB1qBTZ5U6udkjs1hPR3RSBIEVByB2nHabUVgdQQUHKnhpD+rggEKQJK7iDtOK22IpAaAkru1BDS3xWBIEVAyR2kHafVVgRSQ0DJnRpC+rsiEKQIKLmDtOO02opAaggouVNDSH9XBIIUASV3kHacVlsRSA0BJXdqCOnvikCQIqDkDtKO02orAqkhELTkzpsdKGb3QkVqDdXfFYFwQ4Bv1/FtN77r7+xNwZTwiI+PR0KCwyuKqQCYIS4uzuHFyqR3xMbGIjLSbtcEu0v4ppF5kT/cOkvbqwh4gkDQkJuvNTp7H9iTRus9ikA4IMA9Aez30nelzX7R3K5UTK9RBBSBtCGg5E4bfnq3IhCwCCi5A7ZrtGKKQNoQUHKnDT+9WxEIWASU3AHbNVoxRSBtCCi504af3q0IBCwCSu6A7RqtmCKQNgSU3GnDT+9WBAIWAb+Qm2dbOW6UH7AIacUUgQBAgHvlu3uwgl/IremnATBatApBhUDQpJ8acvNcKB5cp6IIKALOEaCVe+xcEL44wuN0eI6XiiKgCDhHIGhf+VRy65BWBFJGQMmtI0QRCFEElNwh2rHaLEVAya1jQBEIUQSU3CHasdosRUDJrWNAEQhRBJTcIdqx2ixFQMmtY0ARCFEElNwh2rHaLEVAya1jQBEIUQSU3CHasdosRUDJrWNAEQhRBJTcIdqx2ixFQMmtY0ARCFEElNwh2rHaLEVAya1jQBEIUQSU3CHasdosRUDJrWNAEQhRBMKW3AnXgH0npFezZga4s4ujcA+qAycTX/PXXuCNH4GbigEvt/LfqDh1ATh+HsgAoHgswB0u7eX8ZeDwGfkmf04gZ1Zg8yHgxR+krR91SnqP/1qjT/YFAmFL7hMXgP4TAJKgWB5geA8gkwNBlmwD3p4vsDevAjzeBOg7Adh/AuCZxz8+7Isuca3MKauB8SuAiEzAhD5AbPbE9/22HXjrR/nuibuBZpWBjxYC8zfKd98MBqKzuvYsXnUxAdh51DpZRMuEoRLYCIQtua9dBwZOEu1NgkwfkHSwf/AL8PMm6cDX2gC3lhZNPnk1UL0o0KKK/zp30iobuSf1dULubWJhUJ68WyanE+cBTgrU4r1uda/u6w8AT86SewY3AjrUdO9+vTr9EQhbchPqHzcCHy8U0NvXBIY0snUAyd9jjGwNGxkBTO0vpODfNOlpBudz0F68Z/9J4FICkCtKtJuxBvgbt2Wm8DduzUzhteaQBZZnzGsSkW4B73emJT0h9+mLwIUrQMYMQIHoxIONdWDbWM/oKKCAXd3PXATW7gPetFox99UDWlSVerEsI2cvAUfOAFevyyb4jhvh89msAyV/NEDXIv4sUDQPcOWqtJdSKJetzOs3pEwKrSV3N9dPf0oFzhPDmtzshlZfyKDixu0zB8kAovxzAHjKqqnuKA+8cI98/8x3wNq9smf6jIHy3Q0Au+OBx2cKeYxUKwK80AKIzSHftP5SyNy0MvB0U/nu69+Ab9fJ5+eaA3dVlM9DpgA7jorLMKZX0gHjCbmHLQW+WSuT1Q8PCjFJnuFLge//ls9GKhQE3rpXrBl7c978TmtnSj/BgffN/AsY+4dMDkbYFrbTTFg//Qt8uMCKYzPg3Z/l89CmwN4TwPQ18vfw7kDpfPL50Gmg51j53KAs8JIf4xxJeyGwvwl7cr8wG1i9WzppWHegjHVQvfkjQJ+bmvPr+4BSea2D0gm51+wFXvpBNDonhyJ5gL3HhPTUQiN6SNDuxdnAqt3y+bshQq7OI2zarGZx4L32Yj53GSnPc7QozHDyFrnHLAem/imlFo8BckcBGw8KYSsWBD7rKtaN8dWdkXvUMhsxOXFEZQZOWTV01cLAu+2BLBGAPblpORiNTHKXzS8TGieHbvWAvvXlSUu3A6/Ps00ITSoFNqECqXZhT+55G4BPFkmXPHQn0LaGkLTfBNEaMdlFc1KzU5xp7idmAhviJAr9XgcxV/ccB579ViLa7WoCDzQCpq0BRi+Tckb1BHJEAt1H27Qd/6b5T6uBEwGFEfnbyyYdMobc/CV7ZGLzmN+xDbQSKMbndqa5B0yUupJsY3oKCVfsEk2eNQJ4pTWQIQOQnM9N64KkpHByer4FkCurxCUY8OO9r7aWeIU9uTmJDmwg+HJC4XP7jJeJjRYPo/mUzxcDP/wjE+LEvnKtimsIhD25qT04qEiGm4oC73eUAUZ/m9/VLyOD04gjuelnth9mnRzuAG4uZbv2o0XAun3iq88cCPx70BaUeqklkDcn8Oh0IF8OgNF7ButJ+t+2AaOXSzmT+6Xsc/Maxyg/v7txw2Zmp0Tuod8A6/bLs7rVBeiCMCbAOpNwRpIjN01pam7K+x1kidBIm6+Ai1eACgWAL7olJvdzLYC7KiQepDTZOQEw8j9tgLTh/rGi4e+sIBOHiusIhD25CRWjyiQUtcz43mJiUqNTqM2KxSRPbnvN5UgymrYcoNT6U/qLdu00QjRqj5slcPXVEoABqu1HgT/3iObns1mfwrmBcb2kXo7yn1meUbSc47lpK3cDXy6Ru1Iitz1peS2fRdOavna/22wxgOTI/emvwNz18hy6H8Z94d+DJgG7jsnk89Mjicn9aRegcqHEraIp322kWDKfdwUyZgQemCK48e/yBVwf2HoloOQG8Nc+4LnvhIjUXrP/kcAYgzoM7tiLo+Y+eAroNU6uoH9cIjbpsGJAiZqH/vhb84HFW+WcMw7eNXuAt9vJ2vlXvwH33gSs3gOw3AG3A53rOB+m3vK5WTqj5IwFbDsC7IwHth0VLKi5R/aQSSY5chtTn+VQO1NLGyEubAfdFFog9ma5M3LzvsdmiIVzdyUgT3ZgxhpxX8b1FotCxXUElNyQpaj7RgNXr8kSlYl4d64NDGiQMrn5a8fhEhS7pyrwaGOb/2sCU/RdyxWQbLLftwOvzROiUyMxUs+Bf/SMRNtpDtPU529cv3ZcbjO18Qa5aVlsPSxLV9T8DKhROLl9sVg+P9MMYBDLntyDGgIda8nvi7YA7/wknx++E2hTQz7TEqHWpbSqDjx6l2vkHrcCmLxKLIiSMcDu40DdkhK5V3EPASW3Fa+h34p/bC+Omsgy2J1Ey03QhwOy3U3ip285BIz5Q/xeM7h5P9d1meVmgl0kL8lN37TtV7anM9A0tpdtPdyxW71BbtaX8Ya4k7JcxeAZl97e+VlSVSl0U6i5Nx2S+ACFdaZvzkQYTlIm4k/zu3s9WYumH87BxSUzk2TjiuZmUhGDmfYysQ9Q0G7t270hHr5XK7mtfU9zdPBk20Bg9Jj+LgenvTgjN0Hk0hkTPRyFEeTXWwORmeUXkprmKoN2lL63iStA+d8PwMpd8plLSPSlnfnb/N0b5KZ1QD//1bm2BBL7+neoBQxuKN/Qwnj6GxvpSWpOStT49KsZmDMJKqYMtpkam5qfVosr5Oa9ZvWBn8vmA752cI3Cl67utVzJbYcXI9SXrctHTC91tgTFrLY9x4CsWWxrsSyCQSD60ow8n7skSze1SgCNKySdILjMRF+UwjVdEwxjcO4Xa7orffJbSiffmSQl/1Fb9rjFtlRn7uBk9fO/8he1bOXCwLIdYl5zwqI/byYO+txs1+5jYmkwmMYElJp2kW+WQ7dl1lq5jmX0v91WdxKbdaeGZxklYoA7KgClrfkBvJ+/LdkqdaJZzyw1Z0J8TDCQMYgH73BvUOvVgoCSW0dCwCDAyePaDclcY2yC2p5JNEymUXEfASW3+5jpHT5CgNmC9PUZUKTQcnrxHufr+D6qQkgVq+QOqe4M3sZwhYIBO75cw3V2ukWMvuvyl+d9quT2HDu9UxEIaASU3AHdPVo5RcBzBJTcnmOndyoCAY2Akjugu0crpwh4joCS23Ps9E5FIKARUHIHdPdo5RQBzxFQcnuOnd6pCAQ0AkrugO4erZwi4DkCSm7PsdM7FYGARiBoyZ0zEijo5JSQgEZbK6cIpCMC3C5673F5qcjsquvq4+Pj45GQYH2LysWbMsTFxdltoOv8rtjYWERGRjr9kemJ3DVERRFQBFxDIGjIfeUawE3yVRQBRcA1BPhasOMee6nd6RfNnVql9HdFQBFIOwJK7rRjqCUoAgGJgJI7ILtFK6UIpB0BJXfaMdQSFIGAREDJHZDdopVSBNKOgJI77RhqCYpAQCKg5A7IbtFKKQJpR0DJnXYMtQRFICAR8Bu5ecQM99pWUQQUAdcQ4CEXPDfdVfEbubnx/4GTrlZTr1MEFAEeRMkDFV0Vv5O7UiE5HUNFEVAEnCNAJRh3Sk6ZDSpy31paDp1TUQQUAecI8BRXHsms5NYRogiEGAJK7hDrUG2OImAQUHLrWFAEQhQBJXeIdqw2SxFQcusYUARCFAEld4h2rDZLEVBy6xhQBEIUASV3iHasNksRUHLrGFAEQhQBJXeIdqw2SxFQcusYUARCFAEld4h2rDZLEVBy6xhQBEIUASV3iHasNksRUHLrGFAEQhQBJXeIdqw2SxFQcusYUARCFAEld4h2bCA3a98JoHhMINcwNOoW1uQe8weQcNWhIzMA+XIAt5QCCuf2fSePXwFcSgBKxgLNqnj2vCNngO//tt1btQhwWxnPyvL1XY/PBDbGAbWKA2/eC0Rk9PUTw7f8sCZ326+AC1ecd37WzMCzzYD6ZYEMPhwfHYcDpy8C9csAr7b27EEz1gAjl9nurVkMeK+DZ2X5+q6HpwFbDgMlYoEvuwGREe49kZPY9qOyVe9Dd7p3rz+uXrIN+HOPTGJ9bwNyRaVfLZTcV4B8OYFqRYCr14C9J4C9x6UDcmYFxvbybYd4g9xDvwXW7bMNmiwRwLyH0m8QufOkK1eBjQcF78yZ3LlTrn1lLrB8h/TJrEHu35/ed4z4HZj5F8A+Gd0TKBidfjVQcl+RgfZRJwH9+g3g9XnAsh2isSf0AQrmsnVIwjWAszG1R85IMS+rFHbeYYdPA6v3AnEngUK5AGpUaix7cUbug6eAtfvlqtjsAHd6TU7OXgK6jQIuXwUalQd+3y5tGNQQ6Fgr8V2r9wBHz8p391QF1h8A/tgldWtYFoi1202W+8NzW1xKq2oA/6YGYn3oPjjbKvfcZeCPncDuY0DubMBNRYHyBYAMdqbP0u3AmUuisRtXBC5eARZvk+dULyIu0aItwJGzQIkYoEklWxt+2QTM/gfYdkTuH9wIyJIJaFoZ2H8S+OeAXNu0kvzNZ2XPIvXlZECslu+UdtEN4vMdhf37+w5pA59RpwRQsaDtKuK8YLP8zTL425KtohQKRcuzMlldjYWbgV+3Cm787v5bBL/mHrpfyY8C578ouR3ITZjMbEvNMr6PDDjKmr3Aez8DJy8kBpPke6KJDGgjk1cDk1aJNWCEHdz7VqBDLZvWciT3ifPAA1OA4+dlILzWRgiSnMxaCwxfCmTMAIzrDbw4G2DAitbI+N6JteNLPwArdklJnWqLRjGSPyfwTDOgelH55u2fgF+3yOdHGwOfWYgwTQAAC15JREFULrJdmy2L1KuG9Vr+wnI/WQSw/vbtvb0s8OhdYgVRBk0GdsUDebIBU/oBx84D94+R32i2cnLixGmkdD7g404An9llZOLyeQ0xnzlQiMxJmUJ36oMFwNXr8jdN+Hc7SBt2xtvKvqkY8HY7m9/P32gZcFK2F06aT94t5dCFYp9RuGXwodPiZhgpmgd4v4Nsu919DHD0TOKyOCl+NyTxd776S8l9RTTvW/cKxGv3Ae//AlxMkFn79TYy63K27zcBuHYdoD/OWX/HUdkX+sYNoEIB4POuoqXmbwQ+WijlUXPcXg5Ys0cIS6Gv2LaGfLYn98utgKe/EY1KstJvtieQ4yCgliExWC6tC5L5nZ+AxVuF1CN6ABxsRuzJTa3EgCEJwM3r2QZqbrohHMT25ObfLJ8mNQczLQPK1P4yiDngu48W64EkbFgO2BEv+FBoJTzeRD6nRG6arvRNWcapCzZyPt4YuKca8PqPwIYDMrnyuprFhdxDmyYmN++PyiKByvOX5bmRmYFMGWTCZF+aNozpBRTLAxw+Y5tkeD/758ApsUTY5x1qiqVgT+6ITFImJy5+z/6gdKkD9L8deHM+QIIRM/YnA518/vMtfEXnxOUquZMJqNHUe6yxTfONWgZMXyPgvdtezHEOEGqIBZvk+0+7iKlGM5mBugLRwPAeQnAOsp7jgDMXpYOnDUhMbmr/HFmlLE4mTzYRk/T/7Z19aFZVHMd/c67RhJE5lTJI5wwSslLUUlaSkqiVYrqmCZb5miL2SmWWlPZGlojprFaSbzOdaUoS/REKimVlEBIV5UKWiQqDil42Vnz83dM9z+Ped+fudn/nH/c8z33OPed7zvf38v2d6+OHtOlbgg2JwYF0eJenx2s++9D7eiWbkU1ZF7m5lu8whxUfqcckel5dJDLwylRyPzBSpHio9kKFYdvn+jcenZDdKeAYDIwDUQMRC2SEHMxn40w1EA2RG+xenaIh9LenRBZv1/uMukZk6Xj9u76c2/fcd10vsmiUCGkCURA4YTg2z1JjcPB7nTNt8W0idw4SKftCpDQQJcmNXalu21GRdw6Fc8BoOM9NtINBv7ybSMU5kTmbtE+MziuT9W/Lub1d26NHD8nOrv+HjdxvhUXxiyNOLcf7DOurg8Dak5fhhfp0F1k9VTcEJCLchbBsEte4dvlefYV3In+f/Z6SxhHOXfvuYZGtATE2Bbm889xYfwwCXoKo4PGxau0bauSfaz/VK56ZIFI4QL0HXhTvRi4N2VwO6HtuxCin3P50VmTeZu1n5s0iM4anknv3ApFuwZJ8d1pk0Ta9dvKNev2kdSI4cyIgjINrRCCP7tTPCPkxVg2Rm1RhbmH4/btLND9nrUkDaE0h9/rpIgW99Hoioa9PiuTnqaGlEekUv6V/LxwlMumG8Dp+ouqOQeEYKDOiAdAIt/vlheSm3Ljcq3C4tIEf3ns9wMHI7e3g9iC3L6gxFASQpXs0VJ1wnXrwojeVMOSkq6aEA/6mUuThHfqafHpkgRIFcrP5F9waXuuH62vuEeH3zhy5PQikf0/1CA2pyRiB4rc1fKX5P60EIfDmNMbq8mif3PsWhWUo8mQ2Jg09YP4tIbnxxlzrGpt9RpAjjx0oMhfhrkQJPLyfyIqJ4bWIUvO3KBbgAB5xJffczSqiYVBJu+pqpE2sjfPcRu4QpYzKysogW6sbPN6NA7kZx6T1Gko7T423wmuhkO/yBBGU85VBiIcRGHK1yH0b1QOne+51B0Q+OKZzJz8m53XkJmwceIV6GULx+YUik9PUbh81vOIjO+vH0X0yfZjI/SP0lU/ustmhOn78lMiSIASeUyhSNCTVc2+fo6EnDaV6YeC5MQQYtLveUHKjO6ydFo4JI/nUbn0dd8/NOBkvpao1xXXjihhGdGXkvhCf2JKbTYlqSiMs339cZNMRfY2oxmeo3xsP63uQGI9OCPzcPpEjJ/R9DmX0zRMp2iDyxz9KCEJE/kVUwaMj1CFyES7THLmH9tXQmjwTD4LXJv+E8HW10kMiZUf1E3Li/kEYymu8tksVCnqKrL9Xr/PJjeCD8MMcnt2rGxuvBTkH9Eoltx+BIDZSkvIJ6/rF462cqJECY6D+fvwX9YRbZonkXtp6z/3CfhUMEfl2zAujDz/nbklYXv6VSMlBFepeKxK5Nih/oRmcv98lIhhK7tsccjuNgn7XTdew/mI1E9TqEdRYAAhG+Ez+Rn0YciLS4GUxCKiuhLR4WgS2lwID8eXPShjydvJd6r0nzoVlHOfFfHK7E2rUopft0VAWYpK71RUmOg2AMeKFIY7fln0ociQoe7kowSc3Si+hPMbMhfZsPMhN7dhXy8lD0QSoExPy0zBYa4tVPMNgkefzOfOlXk1ei0ZBmzZUy1y01obl5cdESg5oX+AyIl/kyXGpanlLyM36EpoTrZGKEHWxfmgqiIOIZyjr4NUcclPnfnG/jpd+OevwvJe6tCXRjdz1kJva9hPjdKO6xoZdXBYeBHHvo+YigPk5MgcYXv44demw3tRLEcycCp5e5ya8ZfPuCsJ3VPvHbk/th3rsgi0aClNHJhdMbxALA0BzuoFPboQwzrW7xuZdNTU8QeWTm/vjsV2D6CjK1Kpd4xAHKj0E9xvejns5cbC15D6fv2/VWjmNstWeB1tPbvrCSCGGuoM+bh4o5xh5REW/FNaUnJvxEvJj8GnpGsaFKxfdO4kmN5N39c7/Ic3QDcNmJwRLb1j2H8+qB6dddVn9TzhhDDjK+leNekOu9U+78X0ObOAZ2Diu/EJIi4KNoEd9FqXXb3hawnwa4/RPlrnryPmpMzM/14dP7vJ5Imd/F/n1N5GcLD0ow7xd88n9yRKNUjj1lZ2pkYw7lOKPi3yUe5KSYMjQFPqkPXzDvP6uFiFyoB/G+cNp7aV7t9TjmWgctbV6L79ej/ekjk4UgYEhiuLeJ4NIgVOAbi4YOdaMaAsxjMY90Q5oaCpOT+A12NN31Z/6OUYe/F3Fwf8upUtq5K7RJ5/nZOvpOteIADDIlEGZC6faXH+pKxvtq0STO1oo499bOrnTQ3l/Bunkjv/sbITpCBi5E7QnjNwJWmzR03GcoOSYbF3PAtSHxpkzZ6S6urpZYMVOLW/W6DvBxZTi3MMV1L8bWnBOZX1WoZPeEKjtnQCCRE3ByJ2o5bbJJgkBI3eSVtvmmigEjNyJWm6bbJIQMHInabVtrolCwMidqOW2ySYJASN3klbb5pooBIzciVpum2ySEDByJ2m1ba6JQqDDkvumfJG84BnjRK2YTdYQaCICnM3n2YUOd0KNBy0uxuH7JuJolxkCsUOAB3R4aKXDkJv/gaQy7b+ejR2qNiBDIEYIFBZ0kLPlMcLMhmIIdEoE2u3BkU6Jpk3KEIgRAkbuGC2GDcUQiBIBI3eUaFpfhkCMEDByx2gxbCiGQJQIGLmjRNP6MgRihICRO0aLYUMxBKJEwMgdJZrWlyEQIwSM3DFaDBuKIRAlAkbuKNG0vgyBGCFg5I7RYthQDIEoETByR4mm9WUIxAgBI3eMFsOGYghEiYCRO0o0rS9DIEYIGLljtBg2FEMgSgSM3FGiaX0ZAjFCwMgdo8WwoRgCUSJg5I4STevLEIgRAkbuGC2GDcUQiBIBI3eUaFpfhkCMEDByx2gxbCiGQJQItIjcFRUV/zY2iNzcXMnKymrssjb5nPtmZ2e3Sd/WqSHQURBoEblLS0sbJXdOTo507dq1XXCA3L1795bBgwe3y/3tpoZAHBCoqqqSmpqaZg0loynkblaPbXBxly5dZPTo0ZKZmdkGvVuXhkDnRKBDkBtSjxkzRjIyMjrnKtisDIE2QCCjvLy80bC8De7b5C5JCfLz84W8v7a2tsnfswsNgaQj8B8bG9k59vYgywAAAABJRU5ErkJggg==;" vertex="1" parent="1">
                    <mxGeometry x="640" y="10" width="247" height="520" as="geometry"/>
                </mxCell>
                <mxCell id="9" style="edgeStyle=orthogonalEdgeStyle;html=1;exitX=0.5;exitY=1;exitDx=0;exitDy=0;entryX=0.5;entryY=0;entryDx=0;entryDy=0;" edge="1" parent="1" source="3" target="5">
                    <mxGeometry relative="1" as="geometry"/>
                </mxCell>
                <mxCell id="10" style="edgeStyle=orthogonalEdgeStyle;html=1;exitX=0.5;exitY=1;exitDx=0;exitDy=0;entryX=0.5;entryY=0;entryDx=0;entryDy=0;" edge="1" parent="1" source="3" target="4">
                    <mxGeometry relative="1" as="geometry"/>
                </mxCell>
                <mxCell id="16" style="edgeStyle=orthogonalEdgeStyle;html=1;exitX=0.5;exitY=1;exitDx=0;exitDy=0;entryX=0.5;entryY=0;entryDx=0;entryDy=0;" edge="1" parent="1" source="3" target="15">
                    <mxGeometry relative="1" as="geometry"/>
                </mxCell>
                <mxCell id="3" value="Pet Page" style="ellipse;whiteSpace=wrap;html=1;" vertex="1" parent="1">
                    <mxGeometry x="140" y="30" width="80" height="80" as="geometry"/>
                </mxCell>
                <mxCell id="4" value="Nav Bar" style="whiteSpace=wrap;html=1;fillColor=#000033;" vertex="1" parent="1">
                    <mxGeometry x="-100" y="150" width="120" height="60" as="geometry"/>
                </mxCell>
                <mxCell id="11" style="edgeStyle=orthogonalEdgeStyle;html=1;exitX=0.5;exitY=1;exitDx=0;exitDy=0;entryX=0.5;entryY=0;entryDx=0;entryDy=0;" edge="1" parent="1" source="5" target="6">
                    <mxGeometry relative="1" as="geometry"/>
                </mxCell>
                <mxCell id="12" style="edgeStyle=orthogonalEdgeStyle;html=1;exitX=0.5;exitY=1;exitDx=0;exitDy=0;" edge="1" parent="1" source="5" target="7">
                    <mxGeometry relative="1" as="geometry"/>
                </mxCell>
                <mxCell id="5" value="Image" style="whiteSpace=wrap;html=1;" vertex="1" parent="1">
                    <mxGeometry x="70" y="150" width="120" height="60" as="geometry"/>
                </mxCell>
                <mxCell id="6" value="Background Image" style="whiteSpace=wrap;html=1;" vertex="1" parent="1">
                    <mxGeometry y="260" width="120" height="60" as="geometry"/>
                </mxCell>
                <mxCell id="7" value="Pet Name" style="whiteSpace=wrap;html=1;" vertex="1" parent="1">
                    <mxGeometry x="150" y="260" width="120" height="60" as="geometry"/>
                </mxCell>
                <mxCell id="13" value="On Page Load, make a fetch request &lt;br&gt;using the pet ID for only name and image&lt;br&gt;Capture it in a state" style="text;html=1;resizable=0;autosize=1;align=center;verticalAlign=middle;points=[];fillColor=none;strokeColor=none;rounded=0;" vertex="1" parent="1">
                    <mxGeometry x="220" y="60" width="230" height="50" as="geometry"/>
                </mxCell>
                <mxCell id="14" value="Takes name and image state" style="text;html=1;resizable=0;autosize=1;align=center;verticalAlign=middle;points=[];fillColor=none;strokeColor=none;rounded=0;" vertex="1" parent="1">
                    <mxGeometry x="125" y="210" width="170" height="20" as="geometry"/>
                </mxCell>
                <mxCell id="15" value="Link to other page" style="whiteSpace=wrap;html=1;" vertex="1" parent="1">
                    <mxGeometry x="400" y="150" width="120" height="60" as="geometry"/>
                </mxCell>
                <mxCell id="18" value="Wrap this page and a links in a context&lt;br&gt;Giving it the pet id" style="text;html=1;resizable=0;autosize=1;align=center;verticalAlign=middle;points=[];fillColor=none;strokeColor=none;rounded=0;" vertex="1" parent="1">
                    <mxGeometry x="205" y="10" width="220" height="30" as="geometry"/>
                </mxCell>
                <mxCell id="19" value="HardCode url links" style="text;html=1;resizable=0;autosize=1;align=center;verticalAlign=middle;points=[];fillColor=none;strokeColor=none;rounded=0;" vertex="1" parent="1">
                    <mxGeometry x="520" y="170" width="110" height="20" as="geometry"/>
                </mxCell>
            </root>
        </mxGraphModel>
    </diagram>
</mxfile>